<svg role="img" viewBox="0 0 24 24" xmlns="http://www.w3.org/2000/svg" fill="#FF694B"><title>dbt</title><path d="M20.025 3.998A13.627 13.627 0 0 0 12.04.25C5.526.25.25 5.526.25 12.04c0 3.758 1.72 7.23 4.665 9.527l1.04-1.39a11.684 11.684 0 0 1-3.994-8.137A11.743 11.743 0 0 1 12 1.96c5.31 0 9.95 3.556 11.356 8.658l1.648-.455A13.606 13.606 0 0 0 20.025 3.998zM23.75 12.04c0-1.138-.14-2.254-.416-3.327l-1.647.455a11.71 11.71 0 0 1 .352 2.872c0 5.866-4.335 10.742-10.04 11.57V21.8a10.023 10.023 0 0 0 6.406-3.3 10.02 10.02 0 0 0 2.502-6.46zm-12.68 9.79v1.808C5.39 22.908.25 18.02.25 12.04c0-.438.025-.876.074-1.31l1.71.19a10.1 10.1 0 0 0-.063 1.12c0 5.31 4.313 9.643 9.6 9.79zM9.18 9.18a4 4 0 1 0 5.64 5.64 4 4 0 0 0-5.64-5.64zm4.5 4.5a2.83 2.83 0 1 1-3.997-3.997 2.83 2.83 0 0 1 3.997 3.997z"/></svg>
