<svg role="img" viewBox="0 0 24 24" xmlns="http://www.w3.org/2000/svg" fill="#F2C811"><title>Microsoft Power BI</title><path d="M10.87.02A2.25 2.25 0 0 0 8.63 2.4v5.8a2.25 2.25 0 0 0 2.25 2.25h2.81V2.25A2.25 2.25 0 0 0 11.44.02zM8.63 12.7a2.25 2.25 0 0 0-2.25-2.25H4.06a2.25 2.25 0 0 0-2.25 2.25v9.06A2.25 2.25 0 0 0 4.06 24h2.32a2.25 2.25 0 0 0 2.25-2.24zm5.06-5.45V24h2.81a2.25 2.25 0 0 0 2.25-2.25V9.5a2.25 2.25 0 0 0-2.25-2.25zm6.48 4.33a2.25 2.25 0 0 0-2.06 2.24v8.94A2.25 2.25 0 0 0 20.35 25H22a2.25 2.25 0 0 0 2.25-2.25V13.83A2.25 2.25 0 0 0 22 11.58z"/></svg>
